<svg width="29" height="29" viewBox="0 0 29 29" fill="none" xmlns="http://www.w3.org/2000/svg">
<path d="M3.66669 14.3332C3.66669 9.30485 3.66669 6.7907 5.22878 5.2286C6.79089 3.6665 9.30503 3.6665 14.3334 3.6665C19.3616 3.6665 21.8759 3.6665 23.4379 5.2286C25 6.7907 25 9.30485 25 14.3332C25 19.3614 25 21.8757 23.4379 23.4377C21.8759 24.9998 19.3616 24.9998 14.3334 24.9998C9.30503 24.9998 6.79089 24.9998 5.22878 23.4377C3.66669 21.8757 3.66669 19.3614 3.66669 14.3332Z" stroke="#EEEEEE" stroke-linejoin="round"/>
<path d="M11 1V3.66667" stroke="#EEEEEE" stroke-linecap="round" stroke-linejoin="round"/>
<path d="M17.6667 1V3.66667" stroke="#EEEEEE" stroke-linecap="round" stroke-linejoin="round"/>
<path d="M11 25V27.6667" stroke="#EEEEEE" stroke-linecap="round" stroke-linejoin="round"/>
<path d="M17.6667 25V27.6667" stroke="#EEEEEE" stroke-linecap="round" stroke-linejoin="round"/>
<path d="M15.6667 10.3333L10.3333 15.6666" stroke="#EEEEEE" stroke-linecap="round" stroke-linejoin="round"/>
<path d="M18.3334 15.6665L15.6667 18.3332" stroke="#EEEEEE" stroke-linecap="round" stroke-linejoin="round"/>
<path d="M27.6667 17.6665H25" stroke="#EEEEEE" stroke-linecap="round" stroke-linejoin="round"/>
<path d="M3.66667 11H1" stroke="#EEEEEE" stroke-linecap="round" stroke-linejoin="round"/>
<path d="M3.66667 17.6665H1" stroke="#EEEEEE" stroke-linecap="round" stroke-linejoin="round"/>
<path d="M27.6667 11H25" stroke="#EEEEEE" stroke-linecap="round" stroke-linejoin="round"/>
</svg>
