<svg width="26" height="28" viewBox="0 0 26 28" fill="none" xmlns="http://www.w3.org/2000/svg"><path d="M9.5 23.5C4.5 25.5 5 19.5 1 19" stroke="#eee" stroke-width="0.5" stroke-linecap="round" stroke-linejoin="round"/><path d="M9.66667 27.6667V23.3439C9.66667 22.5461 9.91187 21.8528 10.3072 21.2265C10.5784 20.7968 10.3927 20.1872 9.9028 20.0525C5.84525 18.9371 3 17.1436 3 11.1947C3 9.64814 3.50673 8.19408 4.39748 6.92853C4.61916 6.61357 4.72999 6.4561 4.75664 6.31346C4.78328 6.17084 4.73696 5.98469 4.64429 5.61242C4.26717 4.09722 4.29161 2.48825 4.85763 1.03764C4.85763 1.03764 6.02723 0.656557 8.68931 2.31958C9.29709 2.69929 9.601 2.88914 9.86867 2.93161C10.1363 2.97408 10.4941 2.88512 11.2097 2.70721C12.1884 2.46393 13.1968 2.33333 14.3333 2.33333C15.4699 2.33333 16.4783 2.46393 17.4569 2.70721C18.1725 2.88512 18.5304 2.97408 18.798 2.93161C19.0657 2.88914 19.3696 2.69929 19.9773 2.31958C22.6395 0.656557 23.8091 1.03764 23.8091 1.03764C24.3751 2.48825 24.3995 4.09722 24.0224 5.61242C23.9297 5.98469 23.8833 6.17084 23.91 6.31346C23.9367 6.45609 24.0475 6.61358 24.2692 6.92853C25.1599 8.19408 25.6667 9.64814 25.6667 11.1947C25.6667 17.1436 22.8215 18.9371 18.7639 20.0525C18.274 20.1872 18.0883 20.7968 18.3595 21.2265C18.7548 21.8528 19 22.5461 19 23.3439V27.6667" stroke="#eee" stroke-width="0.5" stroke-linecap="round" stroke-linejoin="round"/></svg>