<svg width="27" height="27" viewBox="0 0 27 27" fill="none" xmlns="http://www.w3.org/2000/svg"><path d="M1 13.6667C1 7.69555 1 4.70999 2.85499 2.85499C4.70999 1 7.69555 1 13.6667 1C19.6377 1 22.6233 1 24.4784 2.85499C26.3333 4.70999 26.3333 7.69555 26.3333 13.6667C26.3333 19.6377 26.3333 22.6233 24.4784 24.4784C22.6233 26.3333 19.6377 26.3333 13.6667 26.3333C7.69555 26.3333 4.70999 26.3333 2.85499 24.4784C1 22.6233 1 19.6377 1 13.6667Z" stroke="#eee" stroke-width="0.5" stroke-linejoin="round"/><path d="M19.6667 13.6667C19.6667 16.9805 16.9804 19.6667 13.6667 19.6667C10.3529 19.6667 7.66666 16.9805 7.66666 13.6667C7.66666 10.353 10.3529 7.66675 13.6667 7.66675C16.9804 7.66675 19.6667 10.353 19.6667 13.6667Z" stroke="#eee" stroke-width="0.5"/><path d="M21.0104 6.3335H20.9984" stroke="#eee" stroke-width="0.75" stroke-linecap="round" stroke-linejoin="round"/></svg>