<svg width="26" height="28" viewBox="0 0 26 28" fill="none" xmlns="http://www.w3.org/2000/svg">
<path d="M8.52397 2.1942L6.25088 3.24491C2.75029 4.863 1 5.67204 1 7.00008C1 8.32812 2.75029 9.13716 6.25089 10.7553L8.52397 11.8059C10.7269 12.8242 11.8285 13.3334 13 13.3334C14.1715 13.3334 15.2731 12.8242 17.476 11.8059L19.7491 10.7553C23.2497 9.13716 25 8.32812 25 7.00008C25 5.67204 23.2497 4.863 19.7491 3.24491L17.476 2.1942C15.2731 1.17589 14.1715 0.666748 13 0.666748C11.8285 0.666748 10.7269 1.17589 8.52397 2.1942Z" stroke="#EEEEEE" stroke-linecap="round" stroke-linejoin="round"/>
<path d="M24.7173 12.7964C24.9057 13.0613 25 13.3376 25 13.6413C25 14.9504 23.2497 15.748 19.7491 17.3431L17.476 18.3788C15.2731 19.3825 14.1715 19.8845 13 19.8845C11.8285 19.8845 10.7269 19.3825 8.52397 18.3788L6.25089 17.3431C2.75029 15.748 1 14.9504 1 13.6413C1 13.3376 1.09423 13.0613 1.28267 12.7964" stroke="#EEEEEE" stroke-linecap="round" stroke-linejoin="round"/>
<path d="M24.1689 19.6882C24.7229 20.1296 25 20.5694 25 21.0902C25 22.3994 23.2497 23.1969 19.7491 24.792L17.476 25.8277C15.2731 26.8316 14.1715 27.3334 13 27.3334C11.8285 27.3334 10.7269 26.8316 8.52397 25.8277L6.25089 24.792C2.75029 23.1969 1 22.3994 1 21.0902C1 20.5694 1.27704 20.1296 1.83112 19.6882" stroke="#EEEEEE" stroke-linecap="round" stroke-linejoin="round"/>
</svg>
