<svg width="28" height="28" viewBox="0 0 28 28" fill="none" xmlns="http://www.w3.org/2000/svg"><path d="M4.33333 11H3.66667C2.40959 11 1.78105 11 1.39052 11.3905C1 11.7811 1 12.4096 1 13.6667V25C1 26.2571 1 26.8856 1.39052 27.2761C1.78105 27.6667 2.40959 27.6667 3.66667 27.6667H4.33333C5.59041 27.6667 6.21895 27.6667 6.60948 27.2761C7 26.8856 7 26.2571 7 25V13.6667C7 12.4096 7 11.7811 6.60948 11.3905C6.21895 11 5.59041 11 4.33333 11Z" stroke="#EEEEEE" stroke-width="0.5"/><path d="M7 4C7 5.65685 5.65685 7 4 7C2.34315 7 1 5.65685 1 4C1 2.34315 2.34315 1 4 1C5.65685 1 7 2.34315 7 4Z" stroke="#EEEEEE" stroke-width="0.5"/><path d="M14.768 11H13.6667C12.4096 11 11.7811 11 11.3905 11.3905C11 11.7811 11 12.4096 11 13.6667V25C11 26.2571 11 26.8856 11.3905 27.2761C11.7811 27.6667 12.4096 27.6667 13.6667 27.6667H14.3333C15.5904 27.6667 16.2189 27.6667 16.6095 27.2761C17 26.8856 17 26.2571 17 25L17.0001 20.3335C17.0001 18.1244 17.7041 16.3335 19.7839 16.3335C20.8236 16.3335 21.6667 17.2289 21.6667 18.3335V24.3335C21.6667 25.5905 21.6667 26.2191 22.0572 26.6096C22.4476 27.0001 23.0763 27.0001 24.3333 27.0001H24.9983C26.2551 27.0001 26.8835 27.0001 27.274 26.6097C27.6645 26.2193 27.6647 25.5909 27.6649 24.3341L27.6668 17.0003C27.6668 13.6867 24.5152 11.0003 21.3957 11.0003C19.6199 11.0003 18.0356 11.8708 17.0001 13.232C17 12.3919 17 11.9719 16.8176 11.66C16.702 11.4625 16.5375 11.298 16.34 11.1825C16.0281 11 15.6081 11 14.768 11Z" stroke="#EEEEEE" stroke-width="0.5" stroke-linejoin="round"/></svg>