<svg width="28" height="26" viewBox="0 0 28 26" fill="none" xmlns="http://www.w3.org/2000/svg"><path d="M1 4L9.98693 8.70952C13.2703 10.4302 14.7297 10.4302 18.0131 8.70952L27 4" stroke="#eee" stroke-width="0.5" stroke-linejoin="round"/><path d="M12 22.9999C11.3783 22.9918 10.7558 22.9799 10.1318 22.9642C5.93376 22.8587 3.83476 22.8059 2.3266 21.2911C0.81843 19.7763 0.774843 17.7315 0.687683 13.6418C0.659657 12.3267 0.659643 11.0195 0.68767 9.70449C0.774843 5.61476 0.818417 3.56989 2.32659 2.05511C3.83476 0.540318 5.93376 0.487559 10.1318 0.382025C12.7191 0.316985 15.2809 0.316999 17.8683 0.382039C22.0663 0.487572 24.1652 0.540345 25.6733 2.05513C27.1816 3.56991 27.2252 5.61477 27.3123 9.70451C27.3252 10.3099 27.3321 10.5953 27.3332 10.9999" stroke="#eee" stroke-width="0.5" stroke-linecap="round" stroke-linejoin="round"/><path d="M23.3333 19.6667C23.3333 20.7713 22.4379 21.6667 21.3333 21.6667C20.2288 21.6667 19.3333 20.7713 19.3333 19.6667C19.3333 18.5622 20.2288 17.6667 21.3333 17.6667C22.4379 17.6667 23.3333 18.5622 23.3333 19.6667ZM23.3333 19.6667V20.3334C23.3333 21.4379 24.2288 22.3334 25.3333 22.3334C26.4379 22.3334 27.3333 21.4379 27.3333 20.3334V19.6667C27.3333 16.353 24.6471 13.6667 21.3333 13.6667C18.0196 13.6667 15.3333 16.353 15.3333 19.6667C15.3333 22.9805 18.0196 25.6667 21.3333 25.6667" stroke="#eee" stroke-width="0.5" stroke-linecap="round" stroke-linejoin="round"/></svg>