<svg width="26" height="26" viewBox="0 0 26 26" fill="none" xmlns="http://www.w3.org/2000/svg">
<path d="M15.6667 18.3333V7.66667C15.6667 6.40959 15.6667 5.78105 15.2761 5.39052C14.8856 5 14.2571 5 13 5C11.7429 5 11.1144 5 10.7239 5.39052C10.3333 5.78105 10.3333 6.40959 10.3333 7.66667V18.3333C10.3333 19.5904 10.3333 20.2189 10.7239 20.6095C11.1144 21 11.7429 21 13 21C14.2571 21 14.8856 21 15.2761 20.6095C15.6667 20.2189 15.6667 19.5904 15.6667 18.3333Z" stroke="#EEEEEE" stroke-linecap="round" stroke-linejoin="round"/>
<path d="M25 9.00008V6.33341C25 5.07633 25 4.4478 24.6095 4.05727C24.2189 3.66675 23.5904 3.66675 22.3333 3.66675C21.0763 3.66675 20.4477 3.66675 20.0572 4.05727C19.6667 4.4478 19.6667 5.07633 19.6667 6.33341V9.00008C19.6667 10.2572 19.6667 10.8857 20.0572 11.2762C20.4477 11.6667 21.0763 11.6667 22.3333 11.6667C23.5904 11.6667 24.2189 11.6667 24.6095 11.2762C25 10.8857 25 10.2572 25 9.00008Z" stroke="#EEEEEE" stroke-linecap="round" stroke-linejoin="round"/>
<path d="M6.33333 15.6666V12.9999C6.33333 11.7429 6.33333 11.1143 5.94281 10.7238C5.55228 10.3333 4.92375 10.3333 3.66667 10.3333C2.40959 10.3333 1.78105 10.3333 1.39052 10.7238C1 11.1143 1 11.7429 1 12.9999V15.6666C1 16.9237 1 17.5522 1.39052 17.9427C1.78105 18.3333 2.40959 18.3333 3.66667 18.3333C4.92375 18.3333 5.55228 18.3333 5.94281 17.9427C6.33333 17.5522 6.33333 16.9237 6.33333 15.6666Z" stroke="#EEEEEE" stroke-linecap="round" stroke-linejoin="round"/>
<path d="M13 25V21" stroke="#EEEEEE" stroke-linecap="round" stroke-linejoin="round"/>
<path d="M22.3333 14.3334V11.6667" stroke="#EEEEEE" stroke-linecap="round" stroke-linejoin="round"/>
<path d="M13 5V1" stroke="#EEEEEE" stroke-linecap="round" stroke-linejoin="round"/>
<path d="M22.3333 3.66667V1" stroke="#EEEEEE" stroke-linecap="round" stroke-linejoin="round"/>
<path d="M3.66666 20.9999V18.3333" stroke="#EEEEEE" stroke-linecap="round" stroke-linejoin="round"/>
<path d="M3.66666 10.3334V7.66675" stroke="#EEEEEE" stroke-linecap="round" stroke-linejoin="round"/>
</svg>
