<svg width="28" height="28" viewBox="0 0 28 28" fill="none" xmlns="http://www.w3.org/2000/svg">
<path d="M27.3333 14.0001C27.3333 6.63628 21.3637 0.666748 14 0.666748C6.63619 0.666748 0.666656 6.63628 0.666656 14.0001C0.666656 21.3638 6.63619 27.3334 14 27.3334C15.1223 27.3334 16.6667 27.4885 16.6667 26.0001C16.6667 25.1881 16.2443 24.5617 15.8248 23.9393C15.2109 23.0287 14.6031 22.1271 15.3333 20.6667C16.2223 18.889 17.7037 18.889 19.9753 18.889C21.1112 18.889 22.4445 18.889 24 18.6667C26.8013 18.2666 27.3333 16.5446 27.3333 14.0001Z" stroke="#EEEEEE"/>
<path d="M6 14C7.10457 14 8 13.1046 8 12C8 10.8954 7.10457 10 6 10C4.89543 10 4 10.8954 4 12C4 13.1046 4.89543 14 6 14Z" stroke="#EEEEEE"/>
<path d="M12.5 9C13.8807 9 15 7.88071 15 6.5C15 5.11929 13.8807 4 12.5 4C11.1193 4 10 5.11929 10 6.5C10 7.88071 11.1193 9 12.5 9Z" stroke="#EEEEEE"/>
<path d="M7 20C7.55228 20 8 19.5523 8 19C8 18.4477 7.55228 18 7 18C6.44772 18 6 18.4477 6 19C6 19.5523 6.44772 20 7 20Z" stroke="#EEEEEE"/>
<path d="M20 15C21.6569 15 23 13.6569 23 12C23 10.3431 21.6569 9 20 9C18.3431 9 17 10.3431 17 12C17 13.6569 18.3431 15 20 15Z" stroke="#EEEEEE"/>
</svg>
