<svg width="28" height="26" viewBox="0 0 28 26" fill="none" xmlns="http://www.w3.org/2000/svg"><path d="M13.9805 17.5444L18.3024 22.4581C19.9036 24.2785 20.7043 25.1888 21.5423 24.9672C22.3803 24.7456 22.6677 23.5477 23.2424 21.1517L26.4305 7.8612C27.3157 4.17109 27.7583 2.32605 26.7744 1.416C25.7907 0.505958 24.0853 1.183 20.6748 2.53709L4.85167 8.81932C2.1239 9.90232 0.760005 10.4439 0.673418 11.3744C0.664552 11.4696 0.664405 11.5655 0.672978 11.6607C0.756712 12.5916 2.11894 13.1377 4.84339 14.2297C6.07783 14.7245 6.69506 14.972 7.13759 15.4459C7.18735 15.4991 7.23519 15.5543 7.28103 15.6112C7.68877 16.1179 7.86278 16.7828 8.21077 18.1125L8.86203 20.6013C9.20066 21.8953 9.36998 22.5424 9.81343 22.6307C10.2569 22.7188 10.643 22.1823 11.4152 21.1092L13.9805 17.5444ZM13.9805 17.5444L13.5568 17.1028C13.0745 16.6001 12.8335 16.3489 12.8335 16.0367C12.8335 15.7244 13.0745 15.4731 13.5568 14.9704L18.3208 10.0055" stroke="#eee" stroke-width="0.5" stroke-linecap="round" stroke-linejoin="round"/></svg>